<svg width="96" height="96" xmlns="http://www.w3.org/2000/svg" xmlns:xlink="http://www.w3.org/1999/xlink" xml:space="preserve" overflow="hidden"><g transform="translate(-556 -552)"><path d="M603.985 562C583.009 561.999 566.005 579.003 566.004 599.979 566.003 620.955 583.007 637.959 603.983 637.96 624.959 637.961 641.963 620.957 641.964 599.981 641.964 599.98 641.964 599.978 641.964 599.977 641.972 579.011 624.981 562.008 604.015 562 604.005 562 603.995 562 603.985 562ZM620.955 612.169 616.174 616.95 603.985 604.759 591.8 616.948 587.019 612.167 599.2 599.977 587.014 587.788 591.8 583.007 603.985 595.2 616.174 583.007 620.955 587.788 608.766 599.977Z" fill="#FF0000"/></g></svg>