<svg width="96" height="96" xmlns="http://www.w3.org/2000/svg" xmlns:xlink="http://www.w3.org/1999/xlink" xml:space="preserve" overflow="hidden"><g transform="translate(-592 -312)"><path d="M646.62 390.44C646.62 394.096 643.656 397.06 640 397.06 636.344 397.06 633.38 394.096 633.38 390.44 633.38 386.784 636.344 383.82 640 383.82 643.656 383.82 646.62 386.784 646.62 390.44Z" fill="#FFFFFF"/><path d="M644 366.35 644 379 636 379 636 358.68 640 358.68C648.84 358.68 654.56 353.48 654.56 345.44 654.739 337.578 648.51 331.059 640.647 330.88 640.432 330.875 640.216 330.875 640 330.88 630.88 330.88 625.44 336.88 625.44 346L617.5 346C617.5 332.54 626.5 322.94 640 322.94 652.293 322.807 662.367 332.664 662.5 344.957 662.502 345.118 662.502 345.279 662.5 345.44 662.5 356.63 655.1 364.79 644 366.35Z" fill="#FFFFFF"/></g></svg>