<svg width="247" height="247" xmlns="http://www.w3.org/2000/svg" xmlns:xlink="http://www.w3.org/1999/xlink" xml:space="preserve" overflow="hidden"><g transform="translate(-516 -271)"><path d="M600.906 350.246C600.906 363.035 590.539 373.402 577.75 373.402 564.961 373.402 554.594 363.035 554.594 350.246 554.594 337.457 564.961 327.09 577.75 327.09 590.539 327.09 600.906 337.457 600.906 350.246Z" fill="#FFFFFF"/><path d="M724.406 350.246C724.406 363.035 714.039 373.402 701.25 373.402 688.461 373.402 678.094 363.035 678.094 350.246 678.094 337.457 688.461 327.09 701.25 327.09 714.039 327.09 724.406 337.457 724.406 350.246Z" fill="#FFFFFF"/><path d="M685.812 461.91 685.812 438.754C685.812 435.152 684.269 431.55 681.181 429.492 675.006 424.346 666.773 420.744 658.54 418.685 652.879 417.142 646.19 415.598 639.5 415.598 633.325 415.598 626.635 416.627 620.46 418.685 612.227 420.744 604.508 424.86 597.819 429.492 594.731 432.065 593.188 435.152 593.188 438.754L593.188 461.91 685.812 461.91Z" fill="#FFFFFF"/><path d="M662.656 386.267C662.656 399.056 652.289 409.423 639.5 409.423 626.711 409.423 616.344 399.056 616.344 386.267 616.344 373.478 626.711 363.11 639.5 363.11 652.289 363.11 662.656 373.478 662.656 386.267Z" fill="#FFFFFF"/><path d="M742.931 393.471C736.756 388.325 728.523 384.723 720.29 382.665 714.629 381.121 707.94 379.577 701.25 379.577 695.075 379.577 688.385 380.606 682.21 382.665 679.123 383.694 676.035 384.723 672.948 386.267L672.948 386.781C672.948 395.529 669.346 403.763 663.685 409.423 673.463 412.51 681.181 416.627 687.356 421.258 688.9 422.802 690.444 423.831 691.473 425.89L747.562 425.89 747.562 402.733C747.562 399.131 746.019 395.529 742.931 393.471Z" fill="#FFFFFF"/><path d="M591.644 421.258 591.644 421.258C598.848 416.112 607.081 411.996 615.315 409.423 609.654 403.248 606.052 395.529 606.052 386.781 606.052 386.267 606.052 386.267 606.052 385.752 602.965 384.723 599.877 383.179 596.79 382.665 591.129 381.121 584.44 379.577 577.75 379.577 571.575 379.577 564.885 380.606 558.71 382.665 550.477 385.238 542.758 388.84 536.069 393.471 532.981 395.529 531.438 399.131 531.438 402.733L531.438 425.89 587.013 425.89C588.556 423.831 589.585 422.802 591.644 421.258Z" fill="#FFFFFF"/></g></svg>